# xmcd
#
# Track frame offsets: 
#        150
#        15495
#        43848
#        62609
#        84311
#        101864
#        122597
#        137964
#        153565
#        171738
#        185040
#        206580
#        223632
#        242731
#        257536
#        274549
#        289492
#        310225
#        332392
#
# Disc length: 4650 seconds
#
# Revision: 1
# Processed by: cddbd v1.5.2PL0 Copyright (c) Steve Scherf et al.
# Submitted via: ExactAudioCopy v1.3
#
DISCID=1f122813
DTITLE=Sonny Boy Williamson - Keep It To Ourselves (CAPB 036 SA)
DYEAR=1964
DGENRE=Blues
TTITLE0=The Sky Is Crying
TTITLE1=Don't Let Your Right Hand Know
TTITLE2=Coming Home To You Baby
TTITLE3=The Story Of Sonny Boy Williamson
TTITLE4=Gettin' Together
TTITLE5=Little Girl
TTITLE6=I Can't Understand
TTITLE7=Slowly Walk Close To Me
TTITLE8=I Wonder Do I Have A Friend
TTITLE9=Why Are You Crying?
TTITLE10=Girl Friends
TTITLE11=Movin' Down The River Rhine
TTITLE12=I'm So Glad
TTITLE13=Chicago Bounce
TTITLE14=Movin' Out
TTITLE15=Once Upon A Time
TTITLE16=When The Lights Went Out
TTITLE17=Same Girl
TTITLE18=On My Way Back Home
EXTD=
EXTT0=
EXTT1=
EXTT2=
EXTT3=
EXTT4=
EXTT5=
EXTT6=
EXTT7=
EXTT8=
EXTT9=
EXTT10=
EXTT11=
EXTT12=
EXTT13=
EXTT14=
EXTT15=
EXTT16=
EXTT17=
EXTT18=
PLAYORDER=
